PathFileType	4	(X/Y/Z)	/home/abdul/Desktop/myosuite/custom_workspace/IK/output/S1_12_3.trc
DataRate	CameraRate	NumFrames	NumMarkers	Units	OrigDataRate	OrigDataStartFrame	OrigNumFrames
200.0	200.0	33	3	mm	200.0	306	2443
Frame#	Time	V_Shoulder			V_Elbow			V_Wrist		
		X1	Y1	Z1	X2	Y2	Z2	X3	Y3	Z3

306	1.525	-187.84270561677906	482.0568276674944	373.2537956914119	-312.0016005167979	301.4762750030819	76.099201084067	-127.37412030867078	109.43425269351778	132.6871954553424
307	1.53	-187.97636316780157	481.9466932666531	373.09574952286977	-311.8256936279446	301.630319533548	75.62510459513321	-127.26375818471216	109.5328340930777	132.24428964133767
308	1.535	-188.10899246885813	481.83614425733975	372.9378840018276	-311.65040115640744	301.78537751791123	75.15177852024377	-127.15641048117658	109.6304107878438	131.8025137380671
309	1.54	-188.24055537749243	481.7251685665672	372.780248804529	-311.47577027956316	301.94135865038254	74.67938361482379	-127.05208259700892	109.72693490830895	131.36202155297843
310	1.545	-188.37101600224364	481.6137549658744	372.6228913671628	-311.30184334216915	302.0981740527038	74.20807299031961	-126.950772396173	109.82236206191331	130.92295884069142
311	1.55	-188.50034069440483	481.5018929974984	372.4658568055679	-311.1286578271787	302.25573641417486	73.73799187876745	-126.85247024084188	109.91665139207507	130.4854630160566
312	1.555	-188.6284980340328	481.38957290338243	372.3091878445289	-310.9562463445677	302.41396012434063	73.26927743260248	-126.75715905496315	110.00976562242897	130.04966291323234
313	1.56	-188.75545881035143	481.27678555718376	372.1529247568299	-310.7846366376276	302.57276139780754	72.80205855983681	-126.66481441735257	110.10167108610517	129.61567859086338
314	1.565	-188.88119599670438	481.1635223994288	371.997105312197	-310.61385160614964	302.73205839070886	72.33645579458906	-126.57540468335574	110.19233773997493	129.1836211831838
315	1.57	-189.00568472023008	481.0497753759414	371.8417647362168	-310.4439093458973	302.89177130839465	71.87258120280512	-126.48889113401074	110.28173916388356	128.75359279661456
316	1.575	-189.1289022264442	480.9355368796507	371.6869356792831	-310.274823203742	303.05182250397576	71.41053832286916	-126.40522815154262	110.36985254498227	128.32568645117948
317	1.58	-189.25082783893015	480.8207996958672	371.5326481955836	-310.10660184781466	303.2121365674061	70.95042214066586	-126.32436341992741	110.456658647361	127.89998606582823
318	1.585	-189.37144291434961	480.7055569510935	371.3789297320991	-309.9392493520131	303.3726404048424	70.49231909852192	-126.24623814917535	110.54214176726953	127.47656648653238
319	1.59	-189.4907307929977	480.58980206541855	371.225805127551	-309.77276529418987	303.53326330807363	70.03630713732439	-126.17078732190606	110.6262896742968	127.05549355580786
320	1.595	-189.60867674513779	480.4735287085266	371.0732966211961	-309.60714486733576	303.69393701386673	69.58245577098955	-126.09793996071613	110.70909353895671	126.63682422212226
321	1.6	-189.72526791336202	480.356730759333	370.92142387132685	-309.44237900306575	303.85459575312683	69.1308261923365	-126.02761941477945	110.7905478472019	126.22060668746323
322	1.605	-189.84049325123127	480.23940226923895	370.7702039833036	-309.27845450671055	304.0151762898186	68.68147140930607	-125.95974366406656	110.87065030245445	125.80688059117976
323	1.61	-189.95434345845797	480.12153742898585	370.6196515469081	-309.1153542033133	304.1756179496485	68.23443641035877	-125.89422563952607	110.94940171580488	125.39567722806055
324	1.615	-190.06681091290156	480.0031305390689	370.46977868277463	-308.9530570938291	304.33586263855057	67.78975835778522	-125.83097355753573	111.0268058850868	124.98701979848352
325	1.62	-190.1778895996523	479.88417598365527	370.3205950976205	-308.79153852082663	304.495854851067	67.34746680756952	-125.76989126690576	111.10286946358451	124.58092368835975
326	1.625	-190.28757503748625	479.7646682079405	370.17210814796937	-308.63077034299397	304.65554166875415	66.90758395436085	-125.71087860669928	111.17760181917374	124.17739677650228
327	1.63	-190.39586420297618	479.64460169885734	370.0243229120286	-308.47072111775105	304.8148727487883	66.4701249000315	-125.65383177312745	111.25101488473271	123.77643976697667
328	1.635	-190.50275545254854	479.5239709690465	369.877242269355	-308.3113562912797	304.9738003029814	66.03509794423042	-125.59864369377732	111.32312300069098	123.3780465439361
329	1.64	-190.6082484427778	479.4027705439774	369.7308669879164	-308.1526383952832	305.13227906745396	65.60250489528154	-125.54520440743937	111.3939427506067	122.9822045464076
330	1.645	-190.71234404921054	479.28099495210677	369.5851958181317	-307.9945272497955	305.290266263244	65.17234139972503	-125.4934014478187	111.46349279067954	122.58889516047947
331	1.65	-190.8150442840139	479.1586387179438	369.4402255934494	-307.836980171365	305.4477215481616	64.7445972887564	-125.44312022943869	111.53179367411795	122.19809412634041
332	1.655	-190.91635221273978	479.0356963578908	369.2959513370047	-307.67995218594484	305.6046069602282	64.31925693978651	-125.39424443407788	111.59886767128228	121.8097719576399
333	1.66	-191.01627187049698	478.9121623787128	369.152366373873	-307.52339624582777	305.7608868530615	63.896299651320675	-125.34665639611953	111.66473858652515	121.42389437067345
334	1.665	-191.11480817781856	478.78803127849125	369.0094624484271	-307.3672634499693	305.9165278235921	63.47570002934038	-125.30023748523897	111.72943157264145	121.04042272094873
335	1.67	-191.21196685651068	478.66329754990437	368.8672298462825	-307.2115032670503	306.0714986325165	63.05742838336562	-125.25486848490456	111.79297294382863	120.65931444475244
336	1.675	-191.3077543457628	478.5379556856794	368.7256575203109	-307.05606376063514	306.2257701179084	62.64145113037832	-125.21042996522452	111.8553899880382	120.28052350341821
337	1.68	-191.4021777187952	478.41200018605406	368.58473322018534	-306.9008918157874	306.3793151024257	62.227731204799404	-125.16680264873403	111.9167107795781	119.9040008280865
338	1.685	-191.4952446003127	478.2854255680865	368.44444362491566	-306.74593336651174	306.5321082945634	61.816228472731666	-125.12386776778223	111.97696399279697	119.52969476285037
